<svg width="41" height="41" viewBox="0 0 41 41" fill="none" xmlns="http://www.w3.org/2000/svg">
<g clip-path="url(#clip0_151_119)">
<path fill-rule="evenodd" clip-rule="evenodd" d="M3.39351 16.5695C-0.270062 14.7077 0.150348 12.6323 3.8306 12.8492L4.65474 14.394L6.35307 9.11222C7.02038 7.03353 8.13147 5.14836 10.3103 5.14836H32.0314C34.2102 5.14836 35.4648 6.99683 35.992 9.10889L37.2666 14.2306L38.0006 12.8492C41.7843 12.629 42.1213 14.8278 38.1174 16.7263L38.768 17.724C41.4006 20.4299 41.1537 25.2146 40.7433 31.8978V34.6138C40.7433 35.2944 40.1861 35.8516 39.5054 35.8516H34.2236C33.5429 35.8516 32.9857 35.2944 32.9857 34.6138V33.099H8.02136V34.6138C8.02136 35.2944 7.46415 35.8516 6.78349 35.8516H1.50167C0.821002 35.8516 0.263792 35.2944 0.263792 34.6138V31.2405C0.263792 31.1737 0.270465 31.1104 0.277138 31.047C-0.123253 25.9186 -0.687136 19.2121 3.39351 16.5695ZM10.1368 24.7341L5.44551 24.1436C4.33777 24.0201 4.04081 24.4872 4.41784 25.4415L4.92501 26.6727C5.0885 26.9897 5.30538 27.2199 5.55896 27.38C5.85591 27.5636 6.21293 27.6536 6.60998 27.6703L10.7941 27.7037C11.8051 27.7004 12.2421 27.2966 11.9252 26.3691C11.6649 25.4982 11.071 24.951 10.1368 24.7341ZM18.1446 22.7622H22.9493C23.2329 22.7622 23.4664 22.9958 23.4664 23.2794C23.4664 23.563 23.2329 23.7965 22.9493 23.7965H18.1446C17.861 23.7965 17.6274 23.563 17.6274 23.2794C17.6241 22.9958 17.8576 22.7622 18.1446 22.7622ZM30.0161 29.5555H34.8208C35.1044 29.5555 35.338 29.7891 35.338 30.0727C35.338 30.3563 35.1044 30.5898 34.8208 30.5898H30.0161C29.7325 30.5898 29.499 30.3563 29.499 30.0727C29.499 29.7891 29.7292 29.5555 30.0161 29.5555ZM30.8636 24.7341L35.5549 24.1436C36.6626 24.0201 36.9596 24.4872 36.5826 25.4415L36.0754 26.6727C35.9119 26.9897 35.695 27.2199 35.4414 27.38C35.1445 27.5636 34.7875 27.6536 34.3904 27.6703L30.2063 27.7037C29.1953 27.7004 28.7583 27.2966 29.0752 26.3691C29.3355 25.4982 29.9294 24.951 30.8636 24.7341ZM6.14286 29.5555H10.9475C11.2312 29.5555 11.4647 29.7891 11.4647 30.0727C11.4647 30.3563 11.2312 30.5898 10.9475 30.5898H6.14286C5.85925 30.5898 5.62569 30.3563 5.62569 30.0727C5.62569 29.7891 5.85925 29.5555 6.14286 29.5555ZM6.41646 15.5585H35.3847L34.1068 10.2467C33.7565 8.62842 32.7488 7.22705 31.0872 7.22705H11.031C9.37268 7.22705 8.52185 8.66512 8.01135 10.2467L6.41646 15.5585Z" fill="#0056D2"/>
</g>
<defs>
<clipPath id="clip0_151_119">
<rect width="41" height="41" fill="white"/>
</clipPath>
</defs>
</svg>
